<svg xmlns="http://www.w3.org/2000/svg" width="1024" height="1024" viewBox="0 0 1024 1024">
  <defs>
    <linearGradient id="bg" x1="0" y1="0" x2="1" y2="1">
      <stop offset="0%" stop-color="#05080d"/>
      <stop offset="100%" stop-color="#0b1320"/>
    </linearGradient>
    <linearGradient id="glow" x1="0" y1="0" x2="0" y2="1">
      <stop offset="0%" stop-color="#6CE2CF"/>
      <stop offset="100%" stop-color="#39ACEE"/>
    </linearGradient>
  </defs>

  <rect x="64" y="64" width="896" height="896" rx="220" fill="url(#bg)"/>
  <rect x="66" y="66" width="892" height="892" rx="218" fill="none" stroke="#17314e" stroke-width="4"/>

  <g fill="url(#glow)">
    <rect x="216" y="504" width="42" height="54" rx="21"/>
    <rect x="276" y="452" width="42" height="158" rx="21"/>
    <rect x="336" y="372" width="42" height="318" rx="21"/>
    <rect x="396" y="286" width="42" height="490" rx="21"/>
    <rect x="456" y="370" width="42" height="322" rx="21"/>
    <rect x="516" y="456" width="42" height="150" rx="21"/>
    <rect x="576" y="520" width="42" height="42" rx="21"/>

    <rect x="756" y="466" width="42" height="92" rx="21"/>
    <rect x="696" y="412" width="42" height="202" rx="21"/>
    <rect x="636" y="324" width="42" height="378" rx="21"/>
  </g>

  <circle cx="516" cy="521" r="9" fill="#B5FFF2" opacity="0.9"/>
</svg>
